<svg width="18" height="18" viewBox="0 0 18 18" fill="none" xmlns="http://www.w3.org/2000/svg">
<path d="M2 18C1.45 18 0.979 17.8043 0.587 17.413C0.195667 17.021 0 16.55 0 16V6C0 5.45 0.195667 4.979 0.587 4.587C0.979 4.19567 1.45 4 2 4H4V2C4 1.45 4.196 0.979 4.588 0.587C4.97933 0.195667 5.45 0 6 0H12C12.55 0 13.021 0.195667 13.413 0.587C13.8043 0.979 14 1.45 14 2V8H16C16.55 8 17.021 8.19567 17.413 8.587C17.8043 8.979 18 9.45 18 10V16C18 16.55 17.8043 17.021 17.413 17.413C17.021 17.8043 16.55 18 16 18H10V14H8V18H2ZM2 16H4V14H2V16ZM2 12H4V10H2V12ZM2 8H4V6H2V8ZM6 12H8V10H6V12ZM6 8H8V6H6V8ZM6 4H8V2H6V4ZM10 12H12V10H10V12ZM10 8H12V6H10V8ZM10 4H12V2H10V4ZM14 16H16V14H14V16ZM14 12H16V10H14V12Z" fill="white"/>
</svg>
