<svg width="16" height="20" viewBox="0 0 16 20" fill="none" xmlns="http://www.w3.org/2000/svg">
<path d="M5 16H11C11.2833 16 11.521 15.904 11.713 15.712C11.9043 15.5207 12 15.2833 12 15C12 14.7167 11.9043 14.4793 11.713 14.288C11.521 14.096 11.2833 14 11 14H5C4.71667 14 4.47933 14.096 4.288 14.288C4.096 14.4793 4 14.7167 4 15C4 15.2833 4.096 15.5207 4.288 15.712C4.47933 15.904 4.71667 16 5 16ZM5 12H11C11.2833 12 11.521 11.904 11.713 11.712C11.9043 11.5207 12 11.2833 12 11C12 10.7167 11.9043 10.479 11.713 10.287C11.521 10.0957 11.2833 10 11 10H5C4.71667 10 4.47933 10.0957 4.288 10.287C4.096 10.479 4 10.7167 4 11C4 11.2833 4.096 11.5207 4.288 11.712C4.47933 11.904 4.71667 12 5 12ZM2 20C1.45 20 0.979333 19.8043 0.588 19.413C0.196 19.021 0 18.55 0 18V2C0 1.45 0.196 0.979 0.588 0.587C0.979333 0.195667 1.45 0 2 0H9.175C9.44167 0 9.696 0.0500001 9.938 0.15C10.1793 0.25 10.3917 0.391667 10.575 0.575L15.425 5.425C15.6083 5.60833 15.75 5.82067 15.85 6.062C15.95 6.304 16 6.55833 16 6.825V18C16 18.55 15.8043 19.021 15.413 19.413C15.021 19.8043 14.55 20 14 20H2ZM9 6C9 6.28333 9.096 6.52067 9.288 6.712C9.47933 6.904 9.71667 7 10 7H14L9 2V6Z" fill="white"/>
</svg>
