<svg width="14" height="10" viewBox="0 0 14 10" fill="none" xmlns="http://www.w3.org/2000/svg">
<path d="M7 9.09433C7.33407 9.09433 7.60599 8.9778 7.86237 8.70588L13.6892 2.74694C13.899 2.54494 14 2.29633 14 1.99334C14 1.39511 13.5183 0.905655 12.9201 0.905655C12.6249 0.905655 12.3529 1.02996 12.1354 1.2475L7.00777 6.53051L1.8646 1.2475C1.65483 1.02996 1.38291 0.905654 1.07991 0.905654C0.481688 0.905654 -2.13948e-08 1.39511 -4.7544e-08 1.99333C-6.04488e-08 2.28856 0.100999 2.54494 0.310766 2.74694L6.13762 8.70588C6.39401 8.9778 6.6737 9.09433 7 9.09433Z" fill="#60C0EE"/>
</svg>
