<svg width="21" height="19" viewBox="0 0 21 19" fill="none" xmlns="http://www.w3.org/2000/svg">
<path d="M0 7V2C0 1.45 0.196 0.979333 0.588 0.588C0.979333 0.196 1.45 0 2 0H18C18.55 0 19.021 0.196 19.413 0.588C19.8043 0.979333 20 1.45 20 2V8.35C19.7167 8.23333 19.4293 8.14567 19.138 8.087C18.846 8.029 18.55 8 18.25 8C17.8667 8 17.4833 8.05 17.1 8.15C16.7167 8.25 16.35 8.39167 16 8.575C15.85 8.49167 15.6917 8.41667 15.525 8.35C15.3583 8.28333 15.1833 8.225 15 8.175V7H11.625L9.9 3.55C9.81667 3.38333 9.69167 3.25833 9.525 3.175C9.35833 3.09167 9.18333 3.05 9 3.05C8.81667 3.05 8.64167 3.09167 8.475 3.175C8.30833 3.25833 8.18333 3.38333 8.1 3.55L5 9.75L3.9 7.55C3.81667 7.36667 3.69167 7.229 3.525 7.137C3.35833 7.04567 3.18333 7 3 7H0ZM2 16C1.45 16 0.979333 15.8043 0.588 15.413C0.196 15.021 0 14.55 0 14V9H2.375L4.1 12.45C4.18333 12.6333 4.30833 12.771 4.475 12.863C4.64167 12.9543 4.81667 13 5 13C5.18333 13 5.35833 12.9543 5.525 12.863C5.69167 12.771 5.81667 12.6333 5.9 12.45L9 6.25L10.1 8.45C10.1833 8.6 10.2877 8.72067 10.413 8.812C10.5377 8.904 10.6833 8.96667 10.85 9C10.2833 9.43333 9.83333 9.975 9.5 10.625C9.16667 11.275 9 11.9833 9 12.75C9 13.45 9.104 14.0377 9.312 14.513C9.52067 14.9877 9.85833 15.4833 10.325 16H2ZM13.75 10C14.2 10 14.6167 10.1 15 10.3C15.3833 10.5 15.7167 10.7917 16 11.175C16.2833 10.7917 16.6167 10.5 17 10.3C17.3833 10.1 17.8 10 18.25 10C19.0167 10 19.6667 10.2667 20.2 10.8C20.7333 11.3333 21 11.9833 21 12.75C21 13.35 20.7833 13.929 20.35 14.487C19.9167 15.0457 18.9667 15.95 17.5 17.2L16 18.5L14.5 17.2C13.0333 15.95 12.0833 15.0457 11.65 14.487C11.2167 13.929 11 13.35 11 12.75C11 11.9833 11.2667 11.3333 11.8 10.8C12.3333 10.2667 12.9833 10 13.75 10Z" fill="white"/>
</svg>
