<svg width="17" height="11" viewBox="0 0 17 11" fill="none" xmlns="http://www.w3.org/2000/svg">
<path d="M8.50001 0.1875C4.95834 0.1875 1.93376 2.39042 0.708344 5.5C1.93376 8.60958 4.95834 10.8125 8.50001 10.8125C12.0452 10.8125 15.0663 8.60958 16.2917 5.5C15.0663 2.39042 12.0452 0.1875 8.50001 0.1875ZM8.50001 9.04167C6.54501 9.04167 4.95834 7.455 4.95834 5.5C4.95834 3.545 6.54501 1.95833 8.50001 1.95833C10.455 1.95833 12.0417 3.545 12.0417 5.5C12.0417 7.455 10.455 9.04167 8.50001 9.04167ZM8.50001 3.375C7.32772 3.375 6.37501 4.32771 6.37501 5.5C6.37501 6.67229 7.32772 7.625 8.50001 7.625C9.6723 7.625 10.625 6.67229 10.625 5.5C10.625 4.32771 9.6723 3.375 8.50001 3.375Z" fill="#60C0EE"/>
</svg>
