<svg width="20" height="16" viewBox="0 0 20 16" fill="none" xmlns="http://www.w3.org/2000/svg">
<path d="M13 9C13.55 9 14.021 8.804 14.413 8.412C14.8043 8.02067 15 7.55 15 7C15 6.45 14.8043 5.979 14.413 5.587C14.021 5.19567 13.55 5 13 5C12.45 5 11.9793 5.19567 11.588 5.587C11.196 5.979 11 6.45 11 7C11 7.55 11.196 8.02067 11.588 8.412C11.9793 8.804 12.45 9 13 9ZM9 13H17V12.45C17 11.7 16.6333 11.104 15.9 10.662C15.1667 10.2207 14.2 10 13 10C11.8 10 10.8333 10.2207 10.1 10.662C9.36667 11.104 9 11.7 9 12.45V13ZM2 16C1.45 16 0.979333 15.8043 0.588 15.413C0.196 15.021 0 14.55 0 14V2C0 1.45 0.196 0.979333 0.588 0.588C0.979333 0.196 1.45 0 2 0H7.175C7.44167 0 7.696 0.0500001 7.938 0.15C8.17933 0.25 8.39167 0.391666 8.575 0.575L10 2H18C18.55 2 19.021 2.196 19.413 2.588C19.8043 2.97933 20 3.45 20 4V14C20 14.55 19.8043 15.021 19.413 15.413C19.021 15.8043 18.55 16 18 16H2Z" fill="white"/>
</svg>
