<svg width="22" height="18" viewBox="0 0 22 18" fill="none" xmlns="http://www.w3.org/2000/svg">
<path d="M16 18V8.025C16 7.69167 15.9293 7.38333 15.788 7.1C15.646 6.81667 15.4417 6.58333 15.175 6.4L9 1.95C9 1.41667 9.196 0.958333 9.588 0.575C9.97933 0.191667 10.45 0 11 0H20C20.55 0 21.021 0.195667 21.413 0.587C21.8043 0.979 22 1.45 22 2V16C22 16.55 21.8043 17.021 21.413 17.413C21.021 17.8043 20.55 18 20 18H16ZM16 14H18V12H16V14ZM16 10H18V8H16V10ZM16 6H18V4H16V6ZM0 17V9.025C0 8.69167 0.075 8.38333 0.225 8.1C0.375 7.81667 0.583333 7.58333 0.85 7.4L5.85 3.825C6.2 3.575 6.58333 3.45 7 3.45C7.41667 3.45 7.8 3.575 8.15 3.825L13.15 7.4C13.4167 7.58333 13.625 7.81667 13.775 8.1C13.925 8.38333 14 8.69167 14 9.025V17C14 17.2833 13.9043 17.5207 13.713 17.712C13.521 17.904 13.2833 18 13 18H9V12H5V18H1C0.716667 18 0.479333 17.904 0.288 17.712C0.096 17.5207 0 17.2833 0 17Z" fill="white"/>
</svg>
