<svg width="18" height="18" viewBox="0 0 18 18" fill="none" xmlns="http://www.w3.org/2000/svg">
<path d="M5 14C5.28333 14 5.521 13.904 5.713 13.712C5.90433 13.5207 6 13.2833 6 13V8C6 7.71667 5.90433 7.479 5.713 7.287C5.521 7.09567 5.28333 7 5 7C4.71667 7 4.479 7.09567 4.287 7.287C4.09567 7.479 4 7.71667 4 8V13C4 13.2833 4.09567 13.5207 4.287 13.712C4.479 13.904 4.71667 14 5 14ZM9 14C9.28333 14 9.521 13.904 9.713 13.712C9.90433 13.5207 10 13.2833 10 13V5C10 4.71667 9.90433 4.479 9.713 4.287C9.521 4.09567 9.28333 4 9 4C8.71667 4 8.47933 4.09567 8.288 4.287C8.096 4.479 8 4.71667 8 5V13C8 13.2833 8.096 13.5207 8.288 13.712C8.47933 13.904 8.71667 14 9 14ZM13 14C13.2833 14 13.5207 13.904 13.712 13.712C13.904 13.5207 14 13.2833 14 13V11C14 10.7167 13.904 10.479 13.712 10.287C13.5207 10.0957 13.2833 10 13 10C12.7167 10 12.4793 10.0957 12.288 10.287C12.096 10.479 12 10.7167 12 11V13C12 13.2833 12.096 13.5207 12.288 13.712C12.4793 13.904 12.7167 14 13 14ZM2 18C1.45 18 0.979 17.8043 0.587 17.413C0.195667 17.021 0 16.55 0 16V2C0 1.45 0.195667 0.979 0.587 0.587C0.979 0.195667 1.45 0 2 0H16C16.55 0 17.021 0.195667 17.413 0.587C17.8043 0.979 18 1.45 18 2V16C18 16.55 17.8043 17.021 17.413 17.413C17.021 17.8043 16.55 18 16 18H2Z" fill="white"/>
</svg>
