<svg width="94" height="94" viewBox="0 0 94 94" fill="none" xmlns="http://www.w3.org/2000/svg">
<path fill-rule="evenodd" clip-rule="evenodd" d="M76.3837 47C76.3837 48.3317 76.2662 49.585 76.1095 50.8383L84.3737 57.3008C85.1178 57.8883 85.3137 58.9458 84.8437 59.8075L77.0103 73.3592C76.6578 73.9858 75.992 74.3383 75.3262 74.3383C75.0912 74.3383 74.8562 74.2992 74.6212 74.2208L64.8687 70.3042C62.832 71.8317 60.6387 73.1633 58.2495 74.1425L56.7612 84.5217C56.6437 85.4617 55.8212 86.1667 54.842 86.1667H39.1753C38.1962 86.1667 37.3737 85.4617 37.2562 84.5217L35.7678 74.1425C33.3787 73.1633 31.1853 71.8708 29.1487 70.3042L19.3962 74.2208C19.2003 74.2992 18.9653 74.3383 18.7303 74.3383C18.0253 74.3383 17.3595 73.9858 17.007 73.3592L9.17365 59.8075C8.70365 58.9458 8.89949 57.8883 9.64365 57.3008L17.9078 50.8383C17.7512 49.585 17.6337 48.2925 17.6337 47C17.6337 45.7075 17.7512 44.415 17.9078 43.1617L9.64365 36.6992C8.89949 36.1117 8.66449 35.0542 9.17365 34.1925L17.007 20.6408C17.3595 20.0142 18.0253 19.6617 18.6912 19.6617C18.9262 19.6617 19.1612 19.7008 19.3962 19.7792L29.1487 23.6958C31.1853 22.1683 33.3787 20.8367 35.7678 19.8575L37.2562 9.47833C37.3737 8.53833 38.1962 7.83333 39.1753 7.83333H54.842C55.8212 7.83333 56.6437 8.53833 56.7612 9.47833L58.2495 19.8575C60.6387 20.8367 62.832 22.1292 64.8687 23.6958L74.6212 19.7792C74.817 19.7008 75.052 19.6617 75.287 19.6617C75.992 19.6617 76.6578 20.0142 77.0103 20.6408L84.8437 34.1925C85.3137 35.0542 85.1178 36.1117 84.3737 36.6992L76.1095 43.1617C76.2662 44.415 76.3837 45.6683 76.3837 47ZM68.5503 47C68.5503 46.1775 68.5112 45.355 68.3545 44.1408L67.8062 39.715L71.292 36.9733L75.4828 33.6442L72.7412 28.905L67.767 30.9025L63.6153 32.5867L60.0512 29.845C58.4845 28.67 56.9178 27.7692 55.2337 27.0642L51.082 25.38L50.4553 20.9542L49.7112 15.6667H44.267L43.4837 20.9542L42.857 25.38L38.7053 27.0642C37.0995 27.73 35.4937 28.67 33.8095 29.9233L30.2845 32.5867L26.2112 30.9417L21.237 28.9442L18.4953 33.6833L22.7253 36.9733L26.2112 39.715L25.6628 44.1408C25.5453 45.3158 25.467 46.2167 25.467 47C25.467 47.7833 25.5453 48.6842 25.6628 49.8983L26.2112 54.3242L22.7253 57.0658L18.4953 60.3558L21.237 65.095L26.2112 63.0975L30.3628 61.4133L33.927 64.155C35.4937 65.33 37.0603 66.2308 38.7445 66.9358L42.8962 68.62L43.5228 73.0458L44.267 78.3333H49.7503L50.5337 73.0458L51.1603 68.62L55.312 66.9358C56.9178 66.27 58.5237 65.33 60.2078 64.0767L63.7328 61.4133L67.8062 63.0583L72.7803 65.0558L75.522 60.3167L71.292 57.0267L67.8062 54.285L68.3545 49.8592C68.472 48.6842 68.5503 47.8225 68.5503 47ZM47.0086 31.3333C38.3528 31.3333 31.342 38.3442 31.342 47C31.342 55.6558 38.3528 62.6667 47.0086 62.6667C55.6645 62.6667 62.6753 55.6558 62.6753 47C62.6753 38.3442 55.6645 31.3333 47.0086 31.3333ZM39.1753 47C39.1753 51.3083 42.7003 54.8333 47.0086 54.8333C51.317 54.8333 54.842 51.3083 54.842 47C54.842 42.6917 51.317 39.1667 47.0086 39.1667C42.7003 39.1667 39.1753 42.6917 39.1753 47Z" fill="#F67280"/>
</svg>
