<svg width="19" height="16" viewBox="0 0 19 16" fill="none" xmlns="http://www.w3.org/2000/svg">
<path d="M13 10C12.1667 10 11.4583 9.70833 10.875 9.125C10.2917 8.54167 10 7.83333 10 7C10 6.16667 10.2917 5.45833 10.875 4.875C11.4583 4.29167 12.1667 4 13 4C13.8333 4 14.5417 4.29167 15.125 4.875C15.7083 5.45833 16 6.16667 16 7C16 7.83333 15.7083 8.54167 15.125 9.125C14.5417 9.70833 13.8333 10 13 10ZM7 16V14.1C7 13.75 7.08333 13.4167 7.25 13.1C7.41667 12.7833 7.65 12.5333 7.95 12.35C8.7 11.9 9.496 11.5623 10.338 11.337C11.1793 11.1123 12.0667 11 13 11C13.9333 11 14.821 11.1123 15.663 11.337C16.5043 11.5623 17.3 11.9 18.05 12.35C18.35 12.5333 18.5833 12.7833 18.75 13.1C18.9167 13.4167 19 13.75 19 14.1V16H7ZM0 10V8H8V10H0ZM0 2V0H12V2H0ZM8.1 6H0V4H9C8.76667 4.28333 8.57933 4.59167 8.438 4.925C8.296 5.25833 8.18333 5.61667 8.1 6Z" fill="white"/>
</svg>
