<svg width="22" height="21" viewBox="0 0 22 21" fill="none" xmlns="http://www.w3.org/2000/svg">
<path d="M19.875 20.275L17.45 17.875C17.1167 18.1083 16.7457 18.2833 16.337 18.4C15.929 18.5167 15.5083 18.575 15.075 18.575C13.825 18.575 12.7627 18.1373 11.888 17.262C11.0127 16.3873 10.575 15.325 10.575 14.075C10.575 12.825 11.0127 11.7623 11.888 10.887C12.7627 10.0123 13.825 9.57501 15.075 9.57501C16.325 9.57501 17.3877 10.0123 18.263 10.887C19.1377 11.7623 19.575 12.825 19.575 14.075C19.575 14.5083 19.5167 14.929 19.4 15.337C19.2833 15.7457 19.1083 16.125 18.875 16.475L21.275 18.875C21.475 19.075 21.5793 19.3083 21.588 19.575C21.596 19.8417 21.5 20.075 21.3 20.275C21.1 20.475 20.8623 20.575 20.587 20.575C20.3123 20.575 20.075 20.475 19.875 20.275ZM15.075 16.575C15.775 16.575 16.3667 16.3333 16.85 15.85C17.3333 15.3667 17.575 14.775 17.575 14.075C17.575 13.375 17.3333 12.7833 16.85 12.3C16.3667 11.8167 15.775 11.575 15.075 11.575C14.375 11.575 13.7833 11.8167 13.3 12.3C12.8167 12.7833 12.575 13.375 12.575 14.075C12.575 14.775 12.8167 15.3667 13.3 15.85C13.7833 16.3333 14.375 16.575 15.075 16.575ZM0.749992 15.55C0.533325 15.4 0.404325 15.196 0.362992 14.938C0.320992 14.6793 0.366658 14.4333 0.499992 14.2L4.27499 8.15001C4.45832 7.86667 4.71266 7.71267 5.03799 7.68801C5.36266 7.66267 5.64166 7.77501 5.87499 8.02501L7.99999 10.5L11.175 5.32501C11.3583 5.00834 11.6377 4.85001 12.013 4.85001C12.3877 4.85001 12.675 5.00001 12.875 5.30001L14.725 8.07501C14.3417 8.09167 13.979 8.13734 13.637 8.21201C13.2957 8.28734 12.9583 8.39167 12.625 8.52501L12.075 7.70001L8.99999 12.7C8.81666 12.9833 8.55832 13.1417 8.22499 13.175C7.89166 13.2083 7.60832 13.0917 7.37499 12.825L5.24999 10.35L2.19999 15.275C2.04999 15.525 1.82933 15.679 1.53799 15.737C1.24599 15.7957 0.983325 15.7333 0.749992 15.55ZM17.3 8.57501C16.9833 8.44167 16.654 8.33334 16.312 8.25001C15.9707 8.16667 15.6167 8.11667 15.25 8.10001L19.8 0.900007C19.95 0.666673 20.1667 0.516673 20.45 0.450007C20.7333 0.38334 20.9917 0.441673 21.225 0.625006C21.4417 0.775006 21.575 0.979007 21.625 1.23701C21.675 1.49567 21.6333 1.74167 21.5 1.97501L17.3 8.57501Z" fill="white"/>
</svg>
