<svg width="1153" height="280" viewBox="0 0 1153 280" fill="none" xmlns="http://www.w3.org/2000/svg">
<path d="M48.9719 223.648C38.2295 211.755 32.8584 194.022 32.8584 170.45V106.61H0V73.7558H32.8584V24H69.7849V73.7558H127.051L122.668 106.61H69.7849V170.138C69.7849 194.963 78.755 207.373 96.6946 207.373C101.491 207.373 105.818 206.856 109.677 205.811C113.539 204.769 117.658 203.203 122.041 201.116L131.119 230.528C126.109 234.076 120.267 236.792 113.595 238.667C106.916 240.541 100.035 241.484 92.9411 241.484C74.3721 241.484 59.7142 235.54 48.9719 223.648Z" fill="white"/>
<path d="M148.637 238.98V73.7564H182.432V100.039C187.023 91.6985 193.852 84.9683 202.928 79.8578C212.003 74.7494 222.591 72.1907 234.692 72.1907C242.2 72.1907 247.942 72.8198 251.904 74.0664L245.96 109.117C238.866 107.446 232.918 106.61 228.119 106.61C216.229 106.61 206.109 110.578 197.766 118.503C189.42 126.43 185.249 137.386 185.249 151.361V238.98H148.637Z" fill="white"/>
<path d="M269.736 238.98V73.7564H303.531V100.039C308.122 91.6985 314.951 84.9683 324.027 79.8578C333.102 74.7494 343.69 72.1907 355.791 72.1907C363.299 72.1907 369.041 72.8198 373.001 74.0664L367.059 109.117C359.965 107.446 354.017 106.61 349.218 106.61C337.328 106.61 327.208 110.578 318.865 118.503C310.519 126.43 306.348 137.386 306.348 151.361V238.98H269.736Z" fill="white"/>
<path d="M418.305 127.312V98.9311H448.472V70.7274H390.101V127.312C390.101 143.972 395.164 160.018 404.741 173.716C414.888 188.233 429.703 199.33 447.582 205.813L448.472 206.137V175.464C426.419 163.888 418.305 143.632 418.305 127.312Z" fill="#2F5DA7"/>
<path d="M465.629 70.7271V98.9308H495.796V127.312C495.796 143.632 487.682 163.888 465.629 175.464V206.137L466.518 205.813C484.4 199.33 499.213 188.233 509.36 173.716C518.937 160.018 524 143.971 524 127.312V70.7271H465.629Z" fill="#60C0EE"/>
<path d="M645.25 85.75C633 74.25 617.25 68.5 599.75 68.5C575.75 68.5 552.75 82 552.75 108.75C552.75 131.75 570 140.75 585.75 147.5C598.75 153.25 610.75 157.25 610.75 166.5C610.75 174.5 601.25 178 594 178C581.25 178 573 172.25 563 162.5L542.75 183.5C557.25 198 575.25 206 595.75 206C621.25 206 646.25 192.75 646.25 163.75C646.25 138.75 624.75 130.25 607.75 123.25C596.75 118.75 587 114.5 587 106.25C587 100 593 96.25 599.75 96.25C609.75 96.25 619 101.25 625.75 107.25L645.25 85.75ZM853.111 203V134.75C853.111 115.75 851.611 98.75 841.361 85.5C833.111 75 820.861 68.5 806.861 68.5C792.611 68.5 775.361 73 763.111 90.5C756.361 77.25 740.861 68.5 725.861 68.5C712.861 68.5 698.361 74.25 687.861 87.5L685.361 71.5H654.611V203H690.111V112C696.611 104.5 706.611 99 715.361 99C722.861 99 728.861 101.75 732.111 108C736.111 115.5 736.111 126.75 736.111 136.5V203H771.611V134.75C771.611 127.5 771.111 120.5 770.361 114C776.861 104.5 786.861 99 796.111 99C804.111 99 810.361 101.75 813.611 108.25C817.361 115.75 817.611 126.75 817.611 136.5V203H853.111ZM977.045 203V124C977.045 89.75 959.295 68.5 922.795 68.5C903.295 68.5 883.045 73.75 866.295 82L875.795 107.5C887.295 101.5 900.545 96 915.545 96C934.795 96 941.545 106 941.545 122.5V124.5C933.295 122.75 925.045 121.75 917.795 121.75C890.545 121.75 860.545 132 860.545 164.25C860.545 191.25 883.295 206 907.795 206C921.795 206 935.045 202.25 943.545 191.75L946.295 203H977.045ZM941.545 170C934.045 176.75 925.545 181.25 915.295 181.25C904.795 181.25 895.295 175.25 895.295 163.75C895.295 148.25 910.545 143.5 923.545 143.5C929.045 143.5 934.795 144.25 941.545 145.75V170ZM1021.09 71.5H990.344V203H1025.84V114C1031.09 105.25 1040.34 99.5 1050.59 99.5C1055.09 99.5 1059.34 100.5 1063.09 102.5L1071.59 71.5C1066.84 69.75 1061.09 68.5 1054.59 68.5C1041.59 68.5 1031.34 76.75 1023.84 89L1021.09 71.5ZM1145.58 101V71.5H1112.08V42.5H1082.08L1076.58 71.5H1060.83V101H1076.58V155.75C1076.58 163.5 1077.08 171.25 1079.08 177.75C1083.83 194.75 1097.58 206 1118.08 206C1128.33 206 1140.83 203.25 1149.33 198.25L1138.33 172C1133.83 174.25 1129.58 175.75 1124.08 175.75C1116.58 175.75 1113.58 171 1112.58 163.25C1112.08 159.5 1112.08 156 1112.08 152V101H1145.58Z" fill="white"/>
</svg>
